 <svg width="56" height="48" viewBox="0 0 56 48" fill="none" xmlns="http://www.w3.org/2000/svg">
<g clip-path="url(#clip0)">
<path d="M23.09 22.33C22.5377 22.4266 22.1683 22.9527 22.265 23.505C22.3616 24.0572 22.8877 24.4266 23.44 24.33H23.44C26.4372 23.7805 29.5221 23.9519 32.44 24.83C32.5302 24.861 32.6246 24.8779 32.72 24.88C33.2723 24.96 33.7849 24.5772 33.865 24.025C33.9451 23.4727 33.5623 22.96 33.01 22.88C29.7941 21.9104 26.3934 21.7219 23.09 22.33H23.09Z" fill="#FFD0C5"/>
<path d="M52.63 27.2399C50.37 23.1699 46.49 22.8199 43.02 22.8199C41.5632 20.8302 39.6719 19.1988 37.49 18.0499C37.004 17.7737 36.3861 17.9439 36.11 18.4299C35.8338 18.9159 36.004 19.5337 36.49 19.8099C40.66 22.0899 43 25.4699 43 29.0799C43 31.9199 41.49 34.6699 38.74 36.8399C38.4524 37.0652 38.3105 37.4294 38.37 37.7899H38.37C38.8021 40.3348 38.7682 42.9371 38.27 45.4699H35.17C34.8999 44.1097 34.7626 42.7266 34.76 41.3399C34.76 41.1099 34.76 40.8799 34.76 40.6599C34.7729 40.3311 34.6234 40.017 34.36 39.8199C34.0968 39.6213 33.7526 39.5652 33.44 39.6699C30.9618 40.5013 28.3639 40.9202 25.75 40.9099H25.75C23.4683 40.9272 21.1956 40.6208 19 39.9999C18.4699 39.8448 17.9145 40.1488 17.7594 40.6788C17.7289 40.783 17.7156 40.8914 17.72 40.9999V40.9999C17.7538 42.5196 17.623 44.0384 17.33 45.5299H14.15V45.5299C13.8794 44.153 13.7421 42.7532 13.74 41.3499V41.3499C13.737 40.3793 13.8072 39.4099 13.95 38.4499C14.0165 38.0609 13.8481 37.6692 13.52 37.4499L13.07 37.1299V37.1299C12.0071 36.3502 10.8679 35.6801 9.66999 35.1299L9.66999 35.1299C5.95105 33.3629 3.21794 30.0245 2.21999 26.0299H2.21999C6.00234 25.8296 9.58219 24.2583 12.29 21.6099C12.6777 21.2198 12.6777 20.5899 12.29 20.1999H12.29C11.1927 19.0669 10.3025 17.7503 9.65999 16.3099H9.65998C11.1099 17.1176 12.6798 17.6882 14.31 17.9999C15.2497 18.1761 16.2039 18.2631 17.16 18.2599C17.7123 18.2599 18.16 17.8122 18.16 17.2599C18.16 16.7076 17.7123 16.2599 17.16 16.2599H17.16C16.3235 16.2535 15.4897 16.1665 14.67 15.9999H14.67C12.3935 15.5901 10.2594 14.6057 8.46998 13.1399C8.04402 12.7884 7.41374 12.8487 7.0622 13.2746C6.86333 13.5156 6.78852 13.8357 6.85998 14.1399V14.1399C7.40026 16.6268 8.53997 18.9439 10.18 20.8899C7.70595 22.988 4.56387 24.1335 1.31998 24.1199H1.09998C0.550778 24.0616 0.058295 24.4595 -2.49683e-05 25.0087C-0.00747862 25.0789 -0.00747866 25.1497 -2.50787e-05 25.2199H-2.50037e-05C0.806628 30.3624 4.10508 34.7728 8.80997 36.9999C9.88601 37.4855 10.9139 38.0714 11.88 38.7499L11.88 38.7499C11.7781 39.6061 11.7281 40.4677 11.73 41.3299V41.329C11.7309 43.1506 11.9422 44.966 12.3598 46.7391C12.4686 47.2002 12.8861 47.5217 13.3598 47.5091H18.1098C18.5834 47.5217 19.001 47.2002 19.1098 46.7391C19.4573 45.2692 19.6583 43.7686 19.7098 42.2591C21.7063 42.7238 23.7499 42.9554 25.7998 42.9491C28.1646 42.96 30.5198 42.6471 32.7998 42.0191C32.848 43.6092 33.0557 45.1904 33.4198 46.7391C33.5286 47.2002 33.9461 47.5217 34.4198 47.5091H39.1698C39.6434 47.5217 40.061 47.2002 40.1698 46.7391C40.8221 43.8715 40.9274 40.9065 40.48 37.9999C43.2683 35.8319 44.941 32.5305 45.04 28.9999V29.0007C45.0393 27.539 44.7292 26.094 44.1303 24.7606C46.3703 24.8406 48.1303 25.2306 49.4503 26.3606C49.0038 26.4881 48.5931 26.7174 48.2503 27.0306V27.0306C46.9679 28.1979 46.8746 30.1839 48.0419 31.4663C48.6104 32.0908 49.4064 32.46 50.2503 32.4906H50.4103C51.1863 32.4894 51.9344 32.2008 52.5103 31.6806C52.8931 31.3231 53.1816 30.8765 53.3503 30.3806C54.1533 31.7954 54.2493 33.504 53.61 34.9999C53.4309 35.5218 53.7083 36.0901 54.23 36.2699H54.23C54.3329 36.3051 54.4412 36.3221 54.55 36.3199C54.9954 36.3446 55.4034 36.0713 55.55 35.6499C56.73 32.0799 55.66 28.9999 52.63 27.2399V27.2399ZM51.12 30.2399C50.8987 30.4461 50.6017 30.5512 50.3 30.5299C49.9963 30.5231 49.7096 30.3888 49.51 30.1599C49.3068 29.9368 49.2022 29.6411 49.22 29.3399C49.2416 28.7331 49.7428 28.2541 50.35 28.2599H50.41C50.6866 28.2722 50.9479 28.3904 51.14 28.5899L51.23 28.6799C51.4124 28.8975 51.5053 29.1763 51.49 29.4599C51.4931 29.7743 51.3578 30.0742 51.12 30.2799V30.2399Z" fill="#F05736"/>
<path d="M16.3771 23.703C16.7677 24.0936 16.7677 24.7267 16.3771 25.1173C15.9866 25.5078 15.3535 25.5078 14.9629 25.1173C14.5724 24.7267 14.5724 24.0936 14.9629 23.703C15.3535 23.3125 15.9866 23.3125 16.3771 23.703Z" fill="#FFD0C5"/>
<path d="M28 11.4801C27.6605 11.477 27.3234 11.423 27 11.3201C26.645 11.2386 26.3067 11.0965 26 10.9001L25.46 12.1301C25.749 12.3126 26.062 12.4539 26.39 12.5501C26.7779 12.6629 27.1769 12.7334 27.58 12.7601V13.6601H28.58V12.7301V12.7301C29.1109 12.672 29.609 12.444 30 12.0801C30.3258 11.7667 30.5069 11.3321 30.5 10.8801C30.525 10.5181 30.4105 10.1603 30.18 9.88008C29.9705 9.64999 29.7103 9.47194 29.42 9.36008V9.36008C29.0582 9.23178 28.6871 9.13149 28.31 9.06008C28.016 9.00407 27.7281 8.92037 27.45 8.81008C27.2925 8.7659 27.1827 8.62359 27.18 8.46008V8.46008C27.1803 8.30326 27.2642 8.15849 27.4 8.08008C27.6377 7.98428 27.8974 7.95658 28.15 8.00008C28.7231 8.01559 29.2833 8.17369 29.78 8.46008L30.29 7.23008C30.0466 7.08434 29.784 6.97327 29.51 6.90008C29.2086 6.81757 28.9009 6.7607 28.59 6.73008V5.83008H27.59V6.75008C27.0333 6.78543 26.5049 7.00738 26.09 7.38008V7.38008C25.7505 7.70229 25.5619 8.15214 25.57 8.62008C25.5418 8.98243 25.6567 9.3414 25.89 9.62008V9.62008C26.0945 9.8557 26.3562 10.0348 26.65 10.1401H26.65C27.0093 10.2677 27.3768 10.3713 27.75 10.4501C28.051 10.5034 28.3459 10.5871 28.63 10.7001C28.7887 10.7546 28.8965 10.9023 28.9 11.0701C28.9 11.3201 28.58 11.4801 28 11.4801H28Z" fill="#F05736"/>
<path d="M28 19.44C33.3682 19.44 37.72 15.0882 37.72 9.72C37.72 4.35179 33.3682 0 28 0C22.6318 -2.34652e-07 18.28 4.35179 18.28 9.72V9.72008C18.2856 15.086 22.6342 19.4345 28.0001 19.44L28 19.44ZM28 2C32.2637 2 35.72 5.45636 35.72 9.72C35.72 13.9836 32.2637 17.44 28 17.44C23.7364 17.44 20.28 13.9836 20.28 9.72V9.72C20.28 5.45636 23.7364 2 28 2V2Z" fill="#FFD0C5"/>
</g>
<defs>
<clipPath id="clip0">
<rect width="56" height="47.47" fill="white"/>
</clipPath>
</defs>
</svg>
