<svg xmlns="http://www.w3.org/2000/svg" width="48" height="56" fill="none" viewBox="0 0 48 56"><g clip-path="url(#clip0)"><path fill="#F05736" d="M47.84 40.1001V40.1001C47.1797 33.2649 43.6231 27.0399 38.07 23.0001V21.8001V21.8003C38.0383 12.5286 32.7034 4.09288 24.3401 0.0901785V0.0901785C24.0765 -0.0300595 23.7737 -0.0300595 23.5101 0.0901784L23.5101 0.0901794C15.1436 4.09431 9.80794 12.5348 9.78004 21.8101V23.0001H9.78004C4.22318 27.0379 0.662758 33.2632 3.78662e-05 40.1001H3.78483e-05C-0.0203923 40.3704 0.0698327 40.6375 0.250038 40.8401H0.250038C0.436132 41.0408 0.696359 41.1564 0.970038 41.1601H9.97004L10.7 43.7001C11.4221 46.1845 13.6928 47.8977 16.28 47.9101H17.83V47.9101C19.0715 50.8671 20.9099 53.536 23.23 55.7501C23.4097 55.9086 23.6404 55.9973 23.88 56.0001C24.1209 56.0041 24.3539 55.9145 24.53 55.7501L24.53 55.7501C26.8787 53.5456 28.7418 50.8754 30 47.9101H31.56C34.1346 47.8867 36.3879 46.1743 37.1 43.7001L37.83 41.1601H47C47.2298 41.1437 47.4445 41.04 47.6 40.8701C47.7943 40.664 47.8828 40.38 47.84 40.1001L47.84 40.1001ZM9.78003 25.4601V39.2301H2.05003C2.83839 33.8432 5.59177 28.9384 9.78003 25.4601V25.4601ZM23.92 53.6901V53.6901C22.3089 51.9885 20.985 50.0364 20 47.9101H27.82H27.82C26.8448 50.037 25.5273 51.9896 23.92 53.6901ZM35.25 43.1701C34.7724 44.8324 33.2595 45.9833 31.53 46.0001H16.32C14.5939 45.9925 13.0792 44.8484 12.6 43.1901L11.71 40.0701V21.8101V21.8098C11.7182 13.4321 16.4398 5.77192 23.9203 2.00002L23.9203 2.00002C31.4062 5.76758 36.1325 13.4296 36.14 21.8101V40.0501L35.25 43.1701ZM38.07 39.2301V25.4601C42.2523 28.9419 45.0015 33.8456 45.79 39.2301H38.07Z"/><path fill="#FFD0C5" d="M23.91 36.27C27.6435 36.27 30.67 33.2435 30.67 29.51C30.67 25.7766 27.6435 22.75 23.91 22.75C20.1766 22.75 17.15 25.7766 17.15 29.51V29.51C17.15 33.2434 20.1766 36.27 23.91 36.27ZM23.91 24.68C26.5776 24.6745 28.7445 26.8325 28.75 29.5C28.7555 32.1675 26.5976 34.3345 23.93 34.34C21.2625 34.3455 19.0956 32.1875 19.09 29.52C19.09 29.5167 19.09 29.5133 19.09 29.51V29.51C19.09 26.8464 21.2464 24.6855 23.91 24.68H23.91Z"/><path fill="#FFD0C5" d="M23.91 18.7498C26.5775 18.7554 28.7444 16.5974 28.75 13.9298C28.7555 11.2623 26.5975 9.09537 23.93 9.08985C21.2624 9.08434 19.0955 11.2423 19.09 13.9099C19.09 13.9165 19.09 13.9232 19.09 13.9298C19.09 16.5918 21.248 18.7498 23.91 18.7498ZM23.91 11.0298C25.5116 11.0354 26.8055 12.3382 26.8 13.9398C26.7944 15.5414 25.4916 16.8353 23.89 16.8298C22.2923 16.8243 21 15.5275 21 13.9298V13.9298C20.9834 12.3283 22.2683 11.0165 23.8698 11C23.8832 10.9998 23.8966 10.9998 23.91 10.9998L23.91 11.0298Z"/><path fill="#FFD0C5" d="M3.45999 45C2.90771 45 2.45999 45.4477 2.45999 46V48.7C2.31516 49.233 2.62979 49.7824 3.16274 49.9272C3.6957 50.0721 4.24515 49.7575 4.38999 49.2245C4.43666 49.0528 4.43666 48.8717 4.38999 48.7V46V46C4.39128 45.4739 3.98476 45.0368 3.45998 45H3.45999Z"/><path fill="#FFD0C5" d="M8.35998 47.6899C7.8077 47.6899 7.35999 48.1377 7.35999 48.6899V51.2899C7.49425 51.8257 8.03737 52.1511 8.57309 52.0168C8.93091 51.9272 9.2103 51.6478 9.29998 51.2899V48.6899V48.6899C9.30093 48.1603 8.8887 47.7217 8.35997 47.6899H8.35998Z"/><path fill="#FFD0C5" d="M44.9 45C44.3477 45 43.9 45.4477 43.9 46V48.7C43.7552 49.233 44.0698 49.7824 44.6027 49.9272C45.1357 50.0721 45.6852 49.7575 45.83 49.2245C45.8767 49.0528 45.8767 48.8717 45.83 48.7V46V46C45.8313 45.4739 45.4248 45.0368 44.9 45H44.9Z"/><path fill="#FFD0C5" d="M40 47.6899C39.4477 47.6899 39 48.1377 39 48.6899V51.2899C38.8551 51.8229 39.1698 52.3724 39.7027 52.5172C40.2357 52.662 40.7851 52.3474 40.93 51.8144C40.9766 51.6427 40.9766 51.4617 40.93 51.2899V48.6899V48.6899C40.9313 48.1639 40.5247 47.7268 40 47.6899H40Z"/><path fill="#FFD0C5" d="M31.64 39.2301H16.19C15.657 39.0852 15.1076 39.3999 14.9627 39.9328C14.8179 40.4658 15.1325 41.0152 15.6655 41.1601C15.8372 41.2067 16.0183 41.2067 16.19 41.1601H31.64C32.1729 41.0152 32.4876 40.4658 32.3427 39.9328C32.2497 39.5905 31.9823 39.3231 31.64 39.2301Z"/></g><defs><clipPath id="clip0"><rect width="47.85" height="56" fill="#fff"/></clipPath></defs></svg>