<svg xmlns="http://www.w3.org/2000/svg" width="56" height="56" fill="none" viewBox="0 0 56 56"><g clip-path="url(#clip0)"><path fill="#F05736" d="M34.82 16.9402C28.7092 13.171 20.6999 15.0694 16.9308 21.1802C13.1616 27.291 15.06 35.3003 21.1708 39.0694C27.2816 42.8385 35.2909 40.9402 39.06 34.8294C41.6405 30.6455 41.6405 25.364 39.06 21.1802L37.6 22.6402V22.6402C38.5209 24.2763 39.0031 26.1227 39 28.0002V28.0002C39 34.0753 34.0751 39.0002 28 39.0002C21.9248 39.0002 17 34.0753 17 28.0002C17 21.925 21.9248 17.0002 28 17.0002C29.8774 16.997 31.7238 17.4792 33.36 18.4002L34.82 16.9402Z"/><path fill="#FFD0C5" d="M28.7 23.06C28.4689 23.0195 28.2346 22.9994 28 23C25.2386 23 23 25.2386 23 28C23 30.7614 25.2386 33 28 33C30.7614 33 33 30.7614 33 28V28C33.0006 27.7653 32.9805 27.5311 32.94 27.3L30.12 30.12C29.6951 30.547 29.1515 30.8362 28.56 30.95C28.1896 31.0167 27.8103 31.0167 27.44 30.95C26.8485 30.8362 26.3049 30.547 25.88 30.12C24.7102 28.9487 24.7102 27.0512 25.88 25.88L28.7 23.06Z"/><path fill="#F05736" d="M27.2899 28.71C27.6789 29.1022 28.312 29.1047 28.7041 28.7158C28.7061 28.7139 28.708 28.712 28.7099 28.71L48.4999 8.92003L51.7299 8.27003C51.9228 8.2321 52.1002 8.13819 52.2399 8.00003L54.3599 5.88003C54.7565 5.49568 54.7665 4.86259 54.3821 4.46599C54.2753 4.35576 54.1445 4.2716 53.9999 4.22003L52.3599 3.67003L51.7799 2.00003C51.6067 1.47563 51.0411 1.19097 50.5167 1.36423C50.3669 1.41372 50.231 1.49795 50.1199 1.61003L47.9999 3.76003C47.8618 3.89981 47.7679 4.07719 47.7299 4.27003L47.0799 7.50003L27.2899 27.29H27.2899C26.8978 27.679 26.8952 28.3121 27.2841 28.7042C27.2861 28.7062 27.288 28.7081 27.2899 28.71H27.2899ZM49.6299 5.00003L50.3899 4.23003L50.5899 4.82003V4.82003C50.6896 5.11715 50.9228 5.35035 51.2199 5.45003L51.8099 5.65003L50.9999 6.37003L49.2399 6.73003L49.6299 5.00003Z"/><path fill="#F05736" d="M9.61998 10.9999C10.0864 11.2956 10.7043 11.1571 11 10.6907C11.2072 10.3638 11.2072 9.94672 11 9.61985L9.61998 8.19985C9.22785 7.80773 8.5921 7.80773 8.19998 8.19985C7.80785 8.59198 7.80785 9.22773 8.19998 9.61985L9.61998 10.9999Z"/><path fill="#F05736" d="M46.38 44.9999C46.0843 44.5334 45.4665 44.395 45 44.6907C44.5335 44.9864 44.3951 45.6042 44.6908 46.0707C44.7698 46.1953 44.8754 46.3009 45 46.3799L46.41 47.7999C46.8021 48.192 47.4379 48.192 47.83 47.7999C48.2221 47.4078 48.2221 46.772 47.83 46.3799L46.38 44.9999Z"/><path fill="#F05736" d="M9.61998 44.9999L8.19998 46.3799C7.80785 46.772 7.80785 47.4078 8.19998 47.7999C8.5921 48.192 9.22786 48.192 9.61998 47.7999L11 46.3799C11.4664 46.0842 11.6049 45.4663 11.3092 44.9999C11.0135 44.5334 10.3956 44.395 9.92917 44.6907C9.80456 44.7697 9.69897 44.8753 9.61998 44.9999H9.61998Z"/><path fill="#FFD0C5" d="M55 27H49V27C48.8016 22.8157 47.3563 18.7864 44.85 15.43L43.42 16.86V16.86C45.5726 19.8207 46.8165 23.3441 47 27H45.68C45.1277 27 44.68 27.4477 44.68 28C44.68 28.5523 45.1277 29 45.68 29H47C46.5002 38.7266 38.7266 46.5002 29 47V45.68C29 45.1277 28.5523 44.68 28 44.68C27.4477 44.68 27 45.1277 27 45.68V47C17.2929 46.4755 9.5475 38.7085 9.05 29H10.32C10.8723 29 11.32 28.5523 11.32 28C11.32 27.4477 10.8723 27 10.32 27H9.05L9.05 27C9.57215 17.311 17.311 9.5722 27 9.05V10.32C27 10.8723 27.4477 11.32 28 11.32C28.5523 11.32 29 10.8723 29 10.32V9H29C32.6559 9.18347 36.1793 10.4274 39.14 12.58L40.57 11.15L40.57 11.15C37.2136 8.64367 33.1843 7.19842 29 7V1C29 0.447715 28.5523 0 28 0C27.4477 0 27 0.447715 27 1V7.05H27C16.2079 7.57737 7.5774 16.2079 7.05 27H1C0.447715 27 0 27.4477 0 28C2.41411e-08 28.5523 0.447715 29 1 29H7.05L7.05 29C7.55242 39.8116 16.1897 48.4705 27 49V55C27 55.5523 27.4477 56 28 56C28.5523 56 29 55.5523 29 55V49H29C39.8298 48.4955 48.4955 39.8298 49 29H55C55.5523 29 56 28.5523 56 28C56 27.4477 55.5523 27 55 27L55 27Z"/></g><defs><clipPath id="clip0"><rect width="56" height="56" fill="#fff"/></clipPath></defs></svg>