<svg width="56" height="56" viewBox="0 0 56 56" fill="none" xmlns="http://www.w3.org/2000/svg">
<path d="M55.0663 37.7998H51.333V39.6665H55.0663V37.7998Z" fill="#FFD0C5"/>
<path d="M14.0001 41.5332H12.1334V43.3999H14.0001V41.5332Z" fill="#FFD0C5"/>
<path d="M45.7333 41.5332H43.8666V43.3999H45.7333V41.5332Z" fill="#FFD0C5"/>
<path d="M6.53311 37.7998H0.933105V39.6665H6.53311V37.7998Z" fill="#FFD0C5"/>
<path d="M35.4668 37.7998H19.6001V39.6665H35.4668V37.7998Z" fill="#FFD0C5"/>
<path d="M36.4002 15.3999H3.73352V17.2666H36.4002V15.3999Z" fill="#FFD0C5"/>
<path d="M16.8002 7.93311H3.73352V9.79981H16.8002V7.93311Z" fill="#FFD0C5"/>
<path d="M13.0668 36.8667C9.97838 36.8667 7.4668 39.3783 7.4668 42.4667C7.4668 45.5551 9.97838 48.0667 13.0668 48.0667C16.1552 48.0667 18.6668 45.5551 18.6668 42.4667C18.6668 39.3783 16.1551 36.8667 13.0668 36.8667ZM13.0668 46.2C11.0078 46.2 9.3335 44.5256 9.3335 42.4667C9.3335 40.4077 11.0079 38.7334 13.0668 38.7334C15.1257 38.7334 16.8001 40.4078 16.8001 42.4667C16.8001 44.5256 15.1257 46.2 13.0668 46.2Z" fill="#F05736"/>
<path d="M44.8002 36.8667C41.7118 36.8667 39.2002 39.3783 39.2002 42.4667C39.2002 45.5551 41.7118 48.0667 44.8002 48.0667C47.8886 48.0667 50.4002 45.5551 50.4002 42.4667C50.4002 39.3783 47.8886 36.8667 44.8002 36.8667ZM44.8002 46.2C42.7412 46.2 41.0669 44.5256 41.0669 42.4667C41.0669 40.4077 42.7413 38.7334 44.8002 38.7334C46.8592 38.7334 48.5335 40.4078 48.5335 42.4667C48.5335 44.5256 46.8592 46.2 44.8002 46.2Z" fill="#F05736"/>
<path d="M55.8517 31.6953L47.4517 18.6286C47.28 18.3616 46.9841 18.2002 46.6667 18.2002H36.4001C35.884 18.2002 35.4668 18.6183 35.4668 19.1335V42.4668C35.4668 42.9829 35.884 43.4001 36.4001 43.4001H40.1334V41.5334H37.3334V20.0669H46.1571L54.1334 32.4746V41.5336H49.4667V43.4002H55.0667C55.5828 43.4002 56 42.983 56 42.4669V32.2002C56.0001 32.0219 55.9488 31.8455 55.8517 31.6953Z" fill="#F05736"/>
<path d="M41.0664 30.3331V23.7998H48.5331V21.9331H40.1331C39.617 21.9331 39.1998 22.3512 39.1998 22.8664V31.2664C39.1998 31.7825 39.617 32.1997 40.1331 32.1997H54.1331V30.333H41.0664V30.3331Z" fill="#F05736"/>
<path d="M36.4 11.6665H0.933297C0.418141 11.6665 0 12.0846 0 12.5998V42.4665C0 42.9826 0.418141 43.3998 0.933297 43.3998H8.4V41.5331H1.8667V13.5331H35.4667V41.5331H17.7333V43.3998H36.4C36.9161 43.3998 37.3333 42.9826 37.3333 42.4665V12.5998C37.3333 12.0846 36.9161 11.6665 36.4 11.6665Z" fill="#F05736"/>
<path d="M1.8667 7.93311H0V9.79981H1.8667V7.93311Z" fill="#F05736"/>
</svg>
